<svg width="23" height="22" viewBox="0 0 23 22" fill="none" xmlns="http://www.w3.org/2000/svg">
<path d="M22.4497 4.04224C22.3824 3.95004 22.2943 3.87502 22.1926 3.8233C22.0908 3.77158 21.9783 3.74461 21.8641 3.74459H5.5567C5.5251 3.74459 5.49356 3.74652 5.46318 3.75061L4.79205 1.81598C4.75774 1.71719 4.70249 1.62699 4.63006 1.55155C4.55764 1.47611 4.46977 1.41722 4.37247 1.37891L0.990123 0.0501933C0.617351 -0.0957507 0.196707 0.0873491 0.0503082 0.459666C-0.095838 0.832184 0.0872113 1.25308 0.459781 1.39948L3.53173 2.60626L7.29185 13.4446C7.12589 13.5024 6.98525 13.6298 6.9212 13.8079L5.83403 16.8278C5.80114 16.919 5.79071 17.0168 5.80363 17.1128C5.81655 17.2089 5.85243 17.3004 5.90824 17.3797C5.96396 17.4589 6.03794 17.5237 6.12393 17.5683C6.20991 17.613 6.30538 17.6363 6.40229 17.6364H6.96058C6.6146 18.0214 6.40229 18.5284 6.40229 19.086C6.40229 20.285 7.37784 21.2603 8.57663 21.2603C9.77543 21.2603 10.751 20.285 10.751 19.086C10.751 18.5284 10.5387 18.0214 10.1927 17.6364H14.9333C14.5871 18.0214 14.3748 18.5284 14.3748 19.086C14.3748 20.285 15.3501 21.2603 16.5492 21.2603C17.7482 21.2603 18.7235 20.285 18.7235 19.086C18.7235 18.5284 18.5112 18.0214 18.1653 17.6364H18.8443C19.1779 17.6364 19.4483 17.366 19.4483 17.0324C19.4483 16.6988 19.1779 16.4284 18.8443 16.4284H7.26167L7.93498 14.5582C8.02192 14.5948 8.11585 14.6164 8.21417 14.6164H18.8442C18.9977 14.6165 19.1473 14.5677 19.2713 14.4772C19.3953 14.3867 19.4874 14.2592 19.5342 14.113L22.5541 4.69073C22.5891 4.58205 22.5978 4.46666 22.5797 4.35397C22.5615 4.24127 22.517 4.13446 22.4497 4.04224ZM8.57663 20.0523C8.04366 20.0523 7.61028 19.6189 7.61028 19.086C7.61028 18.553 8.04366 18.1196 8.57663 18.1196C9.1096 18.1196 9.54299 18.553 9.54299 19.086C9.54299 19.6189 9.1096 20.0523 8.57663 20.0523ZM16.5491 20.0523C16.0161 20.0523 15.5827 19.6189 15.5827 19.086C15.5827 18.553 16.0161 18.1196 16.5491 18.1196C17.082 18.1196 17.5155 18.553 17.5155 19.086C17.5155 19.6189 17.082 20.0523 16.5491 20.0523ZM20.3483 6.82494H16.6498V5.19418H20.8709L20.3483 6.82494ZM19.2833 10.1468H16.6498V8.27447H19.8835L19.2833 10.1468ZM11.8581 10.1468V8.27447H15.2002V10.1468H11.8581ZM15.2002 11.5965V13.1669H11.8581V11.5965H15.2002ZM7.03257 8.27447H10.4086V10.1468H7.68221L7.03257 8.27447ZM11.8581 6.82494V5.19418H15.2002V6.82494H11.8581ZM10.4086 5.19418V6.82494H6.52952L5.9638 5.19418H10.4086ZM8.18521 11.5965H10.4086V13.1669H8.72996L8.18521 11.5965ZM16.6498 13.1669V11.5966H18.819L18.3157 13.1669H16.6498Z" fill="#9E8267"/>
</svg>
