<svg width="43" height="52" viewBox="0 0 43 52" fill="none" xmlns="http://www.w3.org/2000/svg">
<path d="M29.8844 3.86898C30.5594 6.69994 28.5818 7.99174 25.8887 8.67887C23.1956 9.366 20.8468 9.2217 20.1448 6.39074C19.4429 3.55977 21.38 1.99999 24.0663 1.30599C26.7526 0.611989 29.1487 0.98991 29.8844 3.86898Z" fill="white"/>
<path d="M23.5291 9.6818C22.5911 9.75606 21.6591 9.47529 20.9118 8.8933C20.1645 8.3113 19.6544 7.46903 19.4794 6.52789C18.7639 3.66943 20.3703 1.51185 23.8868 0.611714C27.4033 -0.288424 29.8062 0.817852 30.5216 3.69692C31.2371 6.57598 29.7049 8.37626 26.0399 9.31763C25.221 9.54406 24.3776 9.66639 23.5291 9.6818ZM26.1412 1.67676C25.4893 1.6896 24.8412 1.78187 24.2108 1.95161C22.2939 2.44635 20.1611 3.58698 20.782 6.19806C21.2883 8.25945 22.7462 8.75418 25.7092 7.99147C29.4215 7.03636 29.5632 5.45597 29.2122 4.03361C28.814 2.42573 27.8623 1.67676 26.1412 1.67676Z" fill="#2B2D2F"/>
<path d="M41.3945 40.0253C41.003 37.4005 38.7892 36.3835 37.4798 35.9781C36.1704 35.5727 34.0038 35.4353 32.6336 34.6038C32.1251 34.2953 31.8342 33.5533 31.6693 32.742C31.3488 31.1648 30.1212 29.7939 28.5117 29.7939C26.9007 29.7939 25.673 31.1671 25.3555 32.7466C25.192 33.5602 24.9019 34.3024 24.3924 34.6038C23.0223 35.4147 20.8489 35.5452 19.5395 35.9781C18.2301 36.411 16.023 37.4073 15.6315 40.0253C15.5129 40.8314 15.4366 42.3089 15.3876 43.8268C15.2985 46.5927 17.5486 48.8411 20.3159 48.8411H36.7084C39.4738 48.8411 41.7231 46.5958 41.6363 43.8318C41.5886 42.3121 41.5133 40.8323 41.3945 40.0253Z" fill="white"/>
<path d="M41.7177 49.5277H15.3C15.1209 49.5277 14.9493 49.4553 14.8227 49.3265C14.6961 49.1976 14.625 49.0228 14.625 48.8406C14.625 48.5589 14.625 42.0586 14.9625 39.9079C15.3 37.7572 16.8456 36.0738 19.3497 35.311C19.8917 35.1555 20.4414 35.0293 20.9966 34.9331C22.0546 34.7882 23.0852 34.4825 24.0541 34.0261C24.7291 33.6276 24.9518 31.2776 24.8708 29.869C24.8658 29.7761 24.8794 29.6831 24.9107 29.5957C24.942 29.5083 24.9904 29.4283 25.053 29.3605C25.116 29.2914 25.1922 29.2363 25.277 29.1984C25.3617 29.1606 25.4532 29.1409 25.5458 29.1406H31.4719C31.5639 29.1401 31.6551 29.1587 31.7399 29.1953C31.8246 29.2319 31.9011 29.2858 31.9646 29.3536C32.028 29.4222 32.077 29.5034 32.1083 29.592C32.1397 29.6807 32.1528 29.775 32.1468 29.869C32.0726 31.3051 32.2751 33.6276 32.9635 34.0261C33.9348 34.4824 34.9676 34.7882 36.0278 34.9331C36.583 35.0293 37.1327 35.1555 37.6747 35.311C40.172 36.0738 41.7244 37.7091 42.0551 39.9079C42.3859 42.1067 42.3926 48.5451 42.3926 48.8406C42.3926 49.0228 42.3215 49.1976 42.1949 49.3265C42.0684 49.4553 41.8967 49.5277 41.7177 49.5277ZM16.0877 43.1158C15.9799 45.8901 18.2438 48.1535 21.0202 48.1535H36.036C38.7974 48.1535 41.0467 45.9137 40.9397 43.1543C40.8917 41.9179 40.8226 40.7845 40.7255 40.1278C40.4083 38.0183 38.7006 37.0632 37.29 36.6372C36.8715 36.5135 36.3383 36.4105 35.7713 36.3005C34.5644 36.132 33.3912 35.7702 32.2953 35.2286C31.5446 34.8006 31.1613 33.8137 30.9689 32.7891C30.7374 31.5563 29.7666 30.5286 28.5122 30.5286C27.2578 30.5286 26.285 31.5564 26.0505 32.7886C25.8554 33.8144 25.4707 34.7994 24.7291 35.2286C23.6331 35.7702 22.46 36.132 21.2531 36.3005C20.6861 36.4105 20.1529 36.5135 19.7344 36.6372C18.344 37.0632 16.6161 38.0115 16.2989 40.1278C16.2027 40.7776 16.1351 41.8944 16.0877 43.1158Z" fill="#2B2D2F"/>
<path d="M38.0056 22.6214C38.9059 21.0176 37.3737 17.8206 37.4402 15.9826C37.4966 14.4252 37.3683 12.6982 36.7502 11.4075C35.1776 8.14361 32.8287 6.28149 28.536 6.28149C24.2433 6.28149 21.8675 8.14361 20.3016 11.4075C19.6827 12.6938 19.5528 14.4134 19.6082 15.9668C19.674 17.8113 18.1204 21.0657 19.1137 22.6214C19.4877 23.1714 19.7662 23.7826 19.9371 24.4285C19.9684 24.5849 20.0418 24.7293 20.1492 24.8455C20.2566 24.9618 20.3937 25.0453 20.545 25.0867C20.6964 25.128 20.8561 25.1257 21.0063 25.0798C21.207 25.0185 21.4816 25.0723 21.5588 25.2674C22.0788 26.5814 22.6247 27.0963 24.7698 29.0873C26.7946 31.0044 27.5303 30.9838 28.563 30.9838C29.5957 30.9838 30.2977 30.9837 32.3563 29.0873C33.7067 27.8306 34.4161 27.1612 34.8913 26.5053C35.4225 25.7722 36.8925 25.2862 37.1822 24.4285C37.3559 23.7837 37.6342 23.1729 38.0056 22.6214Z" fill="white"/>
<path d="M28.5761 31.6985C28.5531 31.6985 28.5338 31.6811 28.5316 31.6582L28.4681 31.0114C28.4681 31.3909 28.1593 31.7088 27.7818 31.6702C26.8555 31.5754 25.9538 31.1815 24.2901 29.6372C22.4088 27.8909 21.7147 27.2222 21.1877 26.1457C21.0961 25.9588 20.8872 25.8621 20.6791 25.8648C20.3593 25.8481 20.0538 25.7246 19.8099 25.5135C19.5659 25.3023 19.397 25.0153 19.3292 24.6967L19.2617 24.5112C19.1192 23.9839 18.891 23.4846 18.5867 23.0339C18.1683 22.3467 17.7025 20.9725 18.2223 19.9761C18.3342 19.7711 18.49 19.5942 18.6781 19.4586C18.9874 19.2357 19.2553 18.8893 19.2005 18.5119C18.923 16.5996 18.6729 13.3293 19.7342 11.1259C21.5633 7.31924 24.2968 5.62891 28.5761 5.62891C32.8553 5.62891 35.5888 7.33298 37.4247 11.1259C38.4866 13.3431 38.226 16.6406 37.9464 18.5477C37.8934 18.9089 38.1426 19.2417 38.4349 19.4604C38.6108 19.5921 38.7567 19.761 38.8624 19.9555C39.3888 20.9244 38.9164 22.3467 38.5046 23.0132C38.2036 23.4633 37.9757 23.9598 37.8297 24.4837L37.7622 24.683C37.6931 25.0003 37.5236 25.2858 37.2798 25.4956C37.0359 25.7053 36.7311 25.8278 36.4123 25.8442C36.2064 25.8415 35.9984 25.9318 35.9022 26.1139C35.3151 27.2255 34.5842 27.9427 32.7608 29.6165C30.7697 31.4443 29.791 31.6985 28.5761 31.6985ZM21.3675 24.1531C21.3675 24.1457 21.373 24.1394 21.3804 24.1386C21.4322 24.133 21.4845 24.1335 21.5363 24.1401C21.6427 24.1682 21.7407 24.2224 21.8219 24.2978C21.903 24.3732 21.9649 24.4677 22.002 24.573C22.5352 26.0847 22.8862 26.4145 25.1743 28.5584C27.0034 30.2762 27.5771 30.2762 28.4411 30.2762C28.494 30.2762 28.5376 30.3177 28.5402 30.3706L28.5693 30.9633C28.5693 30.5838 28.88 30.2999 29.2546 30.2393C29.8465 30.1434 30.5106 29.7987 31.8361 28.5584C34.2052 26.3527 34.4887 26.0641 35.0084 24.573C35.0519 24.4715 35.119 24.3822 35.2038 24.3128C35.2885 24.2433 35.3886 24.1958 35.4953 24.1742C35.602 24.1526 35.7123 24.1576 35.8168 24.1887C35.9212 24.2199 36.0167 24.2763 36.0951 24.3531C36.1058 24.3618 36.1168 24.3701 36.1281 24.378C36.2533 24.4663 36.4157 24.3878 36.4663 24.2432L36.5338 24.0439C36.7195 23.4196 36.9996 22.8284 37.364 22.2918C37.5234 22.0516 37.6337 21.7812 37.6882 21.4966C37.7219 21.3207 37.7338 21.1417 37.7241 20.9635C37.712 20.7439 37.611 20.5258 37.391 20.5258C37.2889 20.5278 37.1872 20.5393 37.0872 20.5602C36.9762 20.5838 36.8611 20.5786 36.7525 20.545C36.644 20.5114 36.5456 20.4504 36.4663 20.3678C36.3876 20.2844 36.3309 20.182 36.3014 20.0703C36.2428 19.8487 36.3203 19.6175 36.3631 19.3923C36.591 18.1938 37.2746 14.0818 36.1423 11.7237C34.5427 8.39116 32.2613 6.96881 28.5356 6.96881C24.8098 6.96881 22.461 8.39116 20.8816 11.71C19.5317 14.4585 20.7128 19.6669 20.7263 19.715C20.7525 19.828 20.7501 19.9458 20.7194 20.0575C20.6887 20.1693 20.6307 20.2713 20.5509 20.3541C20.4722 20.4356 20.3749 20.4959 20.2677 20.5295C20.1604 20.563 20.0467 20.5689 19.9366 20.5465C19.8365 20.5263 19.7349 20.5148 19.6329 20.5121C19.4143 20.5121 19.3108 20.7287 19.2965 20.9469C19.2847 21.1284 19.2958 21.3112 19.3299 21.4906C19.3845 21.778 19.4969 22.0507 19.6599 22.2918C20.0232 22.834 20.3031 23.4295 20.4901 24.0577L20.5509 24.2432C20.5947 24.406 20.7927 24.4597 20.9195 24.3486C20.9203 24.3478 20.9212 24.347 20.9221 24.3463C21.0405 24.2366 21.1933 24.1735 21.353 24.168C21.3611 24.1677 21.3675 24.1611 21.3675 24.1531Z" fill="#2B2D2F"/>
<path d="M34.1335 6.28037C32.7754 5.53343 31.2561 5.14233 29.7125 5.14233C28.4987 5.14233 27.3 5.38416 26.1828 5.85068C25.5797 6.10253 24.9512 6.30248 24.3114 6.43619C16.8134 8.00326 18.1344 16.9896 18.6642 19.5231C18.725 19.8137 19.1113 19.9079 19.3992 19.8354C19.698 19.7601 20.0553 19.4869 20.1694 19.2007C20.4831 18.4133 21.4638 17.5045 22.8212 16.4774C22.8894 16.4243 22.9565 16.3702 23.0228 16.315C24.2617 15.2827 26.6129 15.0959 27.9401 16.0119C29.0048 16.7467 30.2085 17.2469 31.4741 17.4806C34.7745 18.1515 36.1323 18.6736 36.6601 19.2403C36.8997 19.4975 37.2859 19.7211 37.6267 19.8074C37.9103 19.8791 38.2938 19.7785 38.3497 19.4914C38.8049 17.1529 39.8443 9.32102 34.1335 6.28037Z" fill="white"/>
<path d="M38.21 20.8743C38.1047 20.8735 38.0009 20.8476 37.9072 20.7986C37.8134 20.7497 37.7322 20.6791 37.67 20.5925C37.6026 20.5032 37.3798 20.4895 37.0963 20.5444C37.0069 20.5628 36.9147 20.5626 36.8254 20.5437C36.7361 20.5248 36.6515 20.4876 36.5766 20.4345C36.5011 20.3814 36.437 20.3132 36.3883 20.234C36.3395 20.1549 36.3072 20.0664 36.2931 19.9741C36.2054 19.4175 34.6125 18.8541 31.3457 18.167C30.0809 17.9228 28.8838 17.4375 27.8128 16.7465C26.4828 15.8885 24.4803 16.0472 23.226 17.0126C21.4801 18.3101 20.9034 19.061 20.769 19.4899C20.732 19.608 20.7487 19.7342 20.7354 19.8573C20.7354 20.0395 20.6643 20.2143 20.5378 20.3432C20.4112 20.472 20.2395 20.5444 20.0605 20.5444C19.9707 20.5444 19.8814 20.5334 19.7924 20.5223C19.7358 20.5153 19.6788 20.5112 19.6218 20.5101C19.4125 20.5101 19.3653 20.5719 19.3518 20.5925C19.2776 20.6986 19.1752 20.781 19.0568 20.8302C18.9383 20.8793 18.8086 20.8932 18.6826 20.8701C18.5567 20.8471 18.4398 20.7881 18.3456 20.7C18.2514 20.6119 18.1837 20.4984 18.1504 20.3726C18.0761 20.0841 16.2807 13.3433 19.1695 9.00068C19.8441 8.02716 20.7226 7.21828 21.7416 6.63245C22.453 6.22347 23.2205 5.93032 24.0162 5.76157C24.698 5.61697 25.3729 5.42697 26.0195 5.16687C27.1858 4.69776 28.4318 4.45629 29.6921 4.45876C31.3408 4.46648 32.9626 4.88398 34.4168 5.67498C41.5645 9.47479 38.9525 19.9191 38.8377 20.3589C38.8015 20.5021 38.7209 20.6297 38.6078 20.7225C38.4947 20.8153 38.3552 20.8686 38.21 20.8743ZM29.7056 5.83302C28.2924 5.82728 26.9002 6.1816 25.6559 6.86371C25.5722 6.91839 25.4777 6.95359 25.3791 6.96678C23.0843 7.22101 21.3834 8.16925 20.317 9.77026C18.3609 12.7067 18.9128 17.1685 19.272 19.064C19.2831 19.1228 19.3342 19.1633 19.394 19.1633C19.4491 19.1633 19.4974 19.1272 19.5154 19.0752C19.8906 17.9929 21.1155 16.9375 22.4363 15.9407C23.4193 15.1717 24.1892 14.1559 24.6704 12.9929C24.7167 12.8701 24.7966 12.7633 24.9007 12.6854C25.0048 12.6074 25.1287 12.5615 25.2576 12.5531C25.3924 12.5367 25.5289 12.562 25.6493 12.6258C25.7697 12.6895 25.8684 12.7887 25.9326 12.9104C26.5616 13.9397 27.3963 14.8227 28.3824 15.5022C29.3684 16.1817 30.4839 16.6424 31.6562 16.8546C35.1722 17.5665 36.7811 18.1772 37.3829 19.0447C37.4292 19.1115 37.5054 19.1519 37.5867 19.1509C37.6956 19.1495 37.7923 19.0774 37.8104 18.97C38.2503 16.3615 38.8556 9.53269 33.8701 6.88432C32.5876 6.19138 31.1574 5.83034 29.7056 5.83302Z" fill="#2B2D2F"/>
<path d="M24.4068 34.6457C24.3973 34.6545 24.3869 34.6622 24.3757 34.6687C23.0244 35.4571 20.8435 35.602 19.5395 36.0331C18.2301 36.466 16.023 37.4074 15.6315 40.0253C15.5129 40.8315 15.4366 42.3089 15.3876 43.8269C15.2985 46.5928 17.5486 48.8412 20.3159 48.8412H36.7185C39.4799 48.8412 41.7281 46.6019 41.6425 43.8418C41.5953 42.3186 41.5187 40.8341 41.3945 40.0253C41.003 37.4005 38.7892 36.3836 37.4798 35.9782C36.1704 35.5728 34.0038 35.4353 32.6336 34.6039C32.5346 34.5412 32.4022 34.5478 32.3225 34.6337L30.3834 36.7247C29.3571 37.8314 27.6036 37.8232 26.5877 36.707L24.7136 34.6477C24.6335 34.5597 24.4941 34.5649 24.4068 34.6457Z" fill="white"/>
<path d="M41.7177 49.5294H15.3C15.1209 49.5294 14.9493 49.457 14.8227 49.3281C14.6961 49.1993 14.625 49.0245 14.625 48.8423C14.625 48.5605 14.625 42.0603 14.9625 39.9096C15.3 37.7589 16.8456 36.0754 19.3497 35.3127C19.8917 35.1571 20.4414 35.031 20.9966 34.9348C22.021 34.7945 23.0198 34.5034 23.9617 34.0708C24.0233 34.0425 24.0813 34.0071 24.1351 33.9659C24.2683 33.857 24.437 33.8036 24.6074 33.8163C24.7777 33.8291 24.937 33.9071 25.053 34.0347C26.8984 36.0575 30.1102 36.0361 31.9713 34.0278C32.0892 33.9022 32.2494 33.8267 32.4197 33.8165C32.59 33.8063 32.7578 33.8622 32.8893 33.9728C32.9342 34.0048 32.9818 34.0329 33.0318 34.0561C33.9824 34.4974 34.992 34.7936 36.0278 34.9348C36.583 35.031 37.1327 35.1571 37.6747 35.3127C40.172 36.0754 41.7244 37.7108 42.0551 39.9096C42.3859 42.1084 42.3926 48.5468 42.3926 48.8423C42.3926 49.0245 42.3215 49.1993 42.1949 49.3281C42.0684 49.457 41.8967 49.5294 41.7177 49.5294ZM16.0892 43.1175C15.9792 45.8918 18.2438 48.1551 21.0202 48.1551H36.036C38.7974 48.1551 41.0467 45.9153 40.9397 43.156C40.8917 41.9196 40.8226 40.7861 40.7255 40.1295C40.4083 38.02 38.7006 37.0649 37.29 36.6389C36.8715 36.5152 36.3383 36.4121 35.7713 36.3022C33.8022 36.0014 31.6806 36.3647 30.3265 37.8257L28.9745 39.2843C28.9116 39.3534 28.8354 39.4086 28.7506 39.4464C28.6659 39.4842 28.5744 39.5039 28.4818 39.5042C28.3893 39.5039 28.2978 39.4842 28.213 39.4464C28.1282 39.4086 28.052 39.3534 27.9891 39.2843L26.673 37.84C25.3366 36.3735 23.2215 36.0047 21.2598 36.3022C20.6928 36.4121 20.1596 36.5152 19.7412 36.6389C18.3507 37.0649 16.6229 38.0131 16.3056 40.1295C16.2068 40.7793 16.1376 41.8961 16.0892 43.1175Z" fill="#2B2D2F"/>
<path d="M32.5861 34.6584C32.4814 34.5921 32.3468 34.5831 32.2426 34.65C31.2178 35.3078 30.0628 35.7251 28.8614 35.8725C28.6186 35.9023 28.373 35.9031 28.1301 35.8745C26.9291 35.7331 25.7748 35.315 24.7551 34.6512C24.6514 34.5838 24.5168 34.5922 24.4124 34.6584C23.502 35.1312 23.0887 36.3934 23.7727 37.1579L26.0683 39.7235C27.3634 41.1709 29.629 41.1716 30.9248 39.7248L33.2245 37.1573C33.9076 36.3946 33.4933 35.1329 32.5861 34.6584Z" fill="white"/>
<path d="M28.4757 43.1041C28.382 43.1048 28.2892 43.0855 28.2032 43.0477C28.1172 43.0098 28.0399 42.9542 27.9762 42.8842L21.6991 35.8686C21.585 35.7409 21.5224 35.5741 21.5236 35.4014C21.5198 35.2426 21.5702 35.0873 21.6662 34.962C21.7622 34.8367 21.8978 34.7492 22.0501 34.7143C22.7211 34.5932 23.372 34.3774 23.984 34.0732C24.0447 34.043 24.1021 34.0065 24.156 33.9653C24.2728 33.8761 24.4149 33.8279 24.5609 33.8279C24.707 33.8279 24.8491 33.8761 24.9659 33.9653C25.9158 34.6041 26.9966 35.0092 28.123 35.1512C28.3705 35.1824 28.6213 35.182 28.8688 35.1503C29.9895 35.0068 31.065 34.6045 32.0124 33.9722C32.1336 33.8888 32.2781 33.8477 32.4242 33.8552C32.5702 33.8626 32.71 33.9181 32.8224 34.0134L32.8966 34.0615C33.5342 34.3919 34.2167 34.6234 34.9215 34.7486C35.075 34.7822 35.2122 34.8691 35.3095 34.9945C35.4069 35.1199 35.4582 35.276 35.4547 35.4358C35.4516 35.6076 35.3896 35.7729 35.2792 35.903L28.9751 42.9048C28.9097 42.971 28.8316 43.0229 28.7457 43.0572C28.6598 43.0914 28.5679 43.1074 28.4757 43.1041ZM24.2798 35.4783C23.9046 35.6435 23.7649 36.1343 24.0382 36.4399L26.4037 39.084C27.5088 40.3193 29.4425 40.3193 30.5477 39.084L32.9123 36.4409C33.186 36.1349 33.0461 35.6433 32.6703 35.4777C32.4945 35.4003 32.2916 35.4088 32.1243 35.5033C31.0048 36.1361 29.7571 36.5013 28.4757 36.5695C27.1936 36.5074 25.9448 36.1424 24.8274 35.5052C24.66 35.4096 24.4563 35.4006 24.2798 35.4783Z" fill="#2B2D2F"/>
<path d="M30.7218 28.4052C30.5428 28.4052 30.3711 28.3328 30.2446 28.204C30.118 28.0751 30.0469 27.9003 30.0469 27.7181C30.0469 27.5359 30.118 27.3611 30.2446 27.2322C30.3711 27.1034 30.5428 27.031 30.7218 27.031C33.9954 27.031 36.3037 26.3438 37.3904 24.9696C37.6492 24.6628 37.8429 24.3048 37.959 23.9181C38.0752 23.5314 38.1114 23.1243 38.0653 22.7227C38.0315 22.5451 38.0678 22.3611 38.1663 22.2106C38.2649 22.0601 38.4178 21.9552 38.5918 21.9187C38.7663 21.8821 38.9479 21.9171 39.0971 22.0162C39.2463 22.1153 39.3509 22.2705 39.3882 22.4478C39.4751 23.0437 39.4376 23.6515 39.2783 24.2316C39.119 24.8117 38.8414 25.3512 38.4636 25.8147C37.0934 27.5394 34.4881 28.4052 30.7218 28.4052Z" fill="#2B2D2F"/>
<path d="M40.4013 21.3846C40.4013 19.3232 39.5508 17.5916 38.4979 17.5779H37.9762C37.8915 17.5779 37.8229 17.6465 37.8229 17.7311C37.8229 17.7814 37.798 17.8282 37.7579 17.8587C37.0124 18.426 36.4258 19.7884 36.4258 21.3846C36.4258 22.9789 37.0111 24.3466 37.7555 24.9091C37.797 24.9405 37.8229 24.9888 37.8229 25.0408C37.8229 25.1277 37.8934 25.1981 37.9803 25.1981H38.4979C39.5508 25.1844 40.4013 23.4803 40.4013 21.3846Z" fill="white"/>
<path d="M38.5899 25.9218C38.5878 25.924 38.5848 25.9252 38.5817 25.9252H37.9116C37.7478 25.9269 37.589 25.8678 37.4649 25.7591C37.2233 25.5476 37.1163 25.2108 36.9239 24.9539C36.17 23.9472 35.7808 22.6996 35.8327 21.4245C35.7853 20.1493 36.1751 18.9024 36.9269 17.8938C37.1178 17.6377 37.2253 17.3032 37.4668 17.0942C37.5909 16.9869 37.7488 16.9288 37.9116 16.9307H38.5865C40.0579 16.9307 41.1649 18.8822 41.1649 21.4245C41.1649 23.9641 40.0604 25.9004 38.5981 25.9183C38.595 25.9183 38.5921 25.9196 38.5899 25.9218ZM38.2789 24.4293C38.3694 24.4926 38.4694 24.551 38.5798 24.551C39.086 24.551 39.815 23.321 39.815 21.4245C39.815 19.5281 39.0793 18.3118 38.5798 18.305C38.4695 18.305 38.3665 18.3585 38.2761 18.4218C37.7294 18.7997 37.1759 19.9472 37.1759 21.4245C37.1759 22.9019 37.7294 24.0562 38.2761 24.4273C38.277 24.4279 38.278 24.4286 38.2789 24.4293Z" fill="#2B2D2F"/>
<path d="M38.5701 24.3935C38.591 24.608 38.5286 24.8224 38.3961 24.9907C38.2636 25.159 38.0717 25.2677 37.8614 25.2936H37.1189C36.9086 25.2677 36.7167 25.159 36.5842 24.9907C36.4517 24.8224 36.3893 24.608 36.4102 24.3935V18.3811C36.3893 18.1665 36.4517 17.9521 36.5842 17.7838C36.7167 17.6156 36.9086 17.5069 37.1189 17.481H37.8344C37.9409 17.4904 38.0445 17.5213 38.1393 17.5718C38.234 17.6222 38.318 17.6913 38.3864 17.775C38.4548 17.8587 38.5063 17.9553 38.5378 18.0593C38.5693 18.1634 38.5803 18.2727 38.5701 18.3811V24.3935Z" fill="white"/>
<path d="M37.9257 26.0219H37.2103C36.8211 25.9953 36.4578 25.814 36.1989 25.517C35.9399 25.2199 35.8062 24.8312 35.8266 24.4346V18.4222C35.8044 18.0252 35.9375 17.6354 36.1968 17.338C36.4561 17.0406 36.8204 16.8597 37.2103 16.835H37.9257C38.1211 16.8437 38.3128 16.8919 38.4898 16.9767C38.6667 17.0614 38.8254 17.1811 38.9566 17.3287C39.0878 17.4763 39.189 17.649 39.2541 17.8367C39.3193 18.0244 39.3473 18.2234 39.3364 18.4222V24.4346C39.3464 24.6332 39.3178 24.8318 39.2523 25.0191C39.1867 25.2064 39.0856 25.3787 38.9545 25.5262C38.8235 25.6736 38.6652 25.7933 38.4886 25.8784C38.3121 25.9634 38.1208 26.0122 37.9257 26.0219ZM37.9634 18.3C37.9274 18.2267 37.8407 18.2023 37.7591 18.2023H37.427C37.2959 18.2023 37.1765 18.2843 37.1765 18.4154V24.4277C37.1732 24.4676 37.1781 24.5078 37.1909 24.5456C37.2152 24.6175 37.294 24.6476 37.3698 24.6476H37.6975C37.8416 24.6476 38.0003 24.5785 37.9932 24.4346V18.4222C37.9922 18.3797 37.982 18.338 37.9634 18.3Z" fill="#2B2D2F"/>
<path d="M16.4453 21.3846C16.4453 19.3232 17.2958 17.5916 18.3487 17.5779H18.8704C18.955 17.5779 19.0236 17.6465 19.0236 17.7311C19.0236 17.7814 19.0486 17.8282 19.0886 17.8587C19.8338 18.426 20.414 19.7884 20.414 21.3846C20.414 22.9789 19.8351 24.3466 19.0911 24.9091C19.0496 24.9405 19.0236 24.9888 19.0236 25.0408C19.0236 25.1277 18.9532 25.1981 18.8663 25.1981H18.3217C17.2958 25.1844 16.4453 23.4803 16.4453 21.3846Z" fill="white"/>
<path d="M19.1297 25.9252H18.4143C16.9361 25.9252 15.8359 23.9737 15.8359 21.4245C15.8359 18.8752 16.9699 16.9444 18.4143 16.9307H19.0892C19.2663 16.9314 19.436 17.003 19.5617 17.1299C19.7652 17.3317 19.8632 17.6253 20.0362 17.8538C20.8055 18.8701 21.2043 20.1331 21.1546 21.4245C21.2039 22.7057 20.8118 23.9588 20.0544 24.971C19.8711 25.2159 19.7699 25.5341 19.5472 25.7438C19.4328 25.8515 19.2853 25.9156 19.1297 25.9252ZM18.4143 18.3049C17.9148 18.3049 17.1858 19.528 17.1858 21.4245C17.1858 23.321 17.9148 24.544 18.421 24.544C18.5285 24.544 18.6282 24.4945 18.7163 24.433C18.7191 24.4311 18.7219 24.4291 18.7247 24.4272C19.2647 24.0562 19.8182 22.9018 19.8182 21.4245C19.8182 19.9472 19.2647 18.7997 18.7247 18.4217C18.7237 18.4211 18.7226 18.4204 18.7215 18.4197C18.6272 18.3608 18.5255 18.3049 18.4143 18.3049Z" fill="#2B2D2F"/>
<path d="M18.3248 24.3935C18.3031 24.6029 18.361 24.8128 18.4865 24.9801C18.5276 25.035 18.575 25.084 18.6274 25.1262C18.8412 25.2986 19.1378 25.2936 19.4125 25.2936H19.7084C19.9187 25.2677 20.1107 25.159 20.2431 24.9907C20.3756 24.8224 20.4381 24.608 20.4171 24.3935V18.3811C20.4381 18.1665 20.3756 17.9521 20.2431 17.7838C20.1107 17.6156 19.9187 17.5069 19.7084 17.481H19.4125C19.1378 17.481 18.8412 17.4759 18.6274 17.6484C18.575 17.6906 18.5276 17.7395 18.4865 17.7944C18.361 17.9618 18.3031 18.1717 18.3248 18.3811V24.3935Z" fill="white"/>
<path d="M19.809 26.0219H19.0868C18.7037 25.9868 18.3488 25.8018 18.097 25.5057C17.8452 25.2097 17.7161 24.8257 17.7369 24.4346V18.4222C17.7144 18.0308 17.8429 17.6458 18.095 17.3493C18.3472 17.0529 18.703 16.8683 19.0868 16.835H19.7955C20.1854 16.8597 20.5497 17.0406 20.809 17.338C21.0682 17.6354 21.2013 18.0252 21.1792 18.4222V24.4346C21.1997 24.8289 21.0678 25.2158 20.8118 25.5124C20.5557 25.8091 20.1958 25.9919 19.809 26.0219ZM19.8362 18.3009C19.8026 18.2279 19.7176 18.2023 19.6373 18.2023H19.3035C19.1724 18.2023 19.0531 18.2843 19.0531 18.4154V21.4215V24.4277C19.0498 24.4676 19.0547 24.5078 19.0675 24.5456C19.0917 24.6175 19.1706 24.6476 19.2464 24.6476H19.5774C19.7177 24.6476 19.8659 24.5748 19.863 24.4346V18.4222C19.8628 18.3803 19.8537 18.3389 19.8362 18.3009Z" fill="#2B2D2F"/>
<path d="M38.658 18.607C38.479 18.607 38.3073 18.5346 38.1807 18.4057C38.0541 18.2768 37.983 18.1021 37.983 17.9198C37.983 15.3685 36.9875 12.9217 35.2154 11.1176C33.4433 9.31355 31.0398 8.30004 28.5336 8.30004C26.0275 8.30004 23.624 9.31355 21.8519 11.1176C20.0798 12.9217 19.0843 15.3685 19.0843 17.9198C19.0843 18.1021 19.0132 18.2768 18.8866 18.4057C18.76 18.5346 18.5883 18.607 18.4093 18.607C18.2303 18.607 18.0586 18.5346 17.9321 18.4057C17.8055 18.2768 17.7344 18.1021 17.7344 17.9198C17.7344 15.004 18.8722 12.2076 20.8974 10.1459C22.9227 8.08408 25.6695 6.92578 28.5336 6.92578C31.3978 6.92578 34.1446 8.08408 36.1699 10.1459C38.1951 12.2076 39.3329 15.004 39.3329 17.9198C39.3329 18.1021 39.2618 18.2768 39.1352 18.4057C39.0086 18.5346 38.837 18.607 38.658 18.607Z" fill="#2B2D2F"/>
<path d="M31.9669 27.7262C31.9625 27.8378 31.9365 27.9474 31.8903 28.0488C31.8441 28.1501 31.7786 28.2411 31.6977 28.3165C31.6167 28.3919 31.5218 28.4502 31.4186 28.488C31.3154 28.5259 31.2058 28.5425 31.0962 28.537H28.1196C28.0097 28.5425 27.8998 28.5259 27.7961 28.4882C27.6925 28.4504 27.5972 28.3922 27.5157 28.3169C27.4342 28.2416 27.3681 28.1506 27.3211 28.0493C27.2742 27.9479 27.2474 27.8381 27.2422 27.7262C27.2474 27.6142 27.2742 27.5044 27.3211 27.4031C27.3681 27.3017 27.4342 27.2108 27.5157 27.1354C27.5972 27.0601 27.6925 27.0019 27.7961 26.9642C27.8998 26.9264 28.0097 26.9098 28.1196 26.9154H31.0962C31.3171 26.906 31.5326 26.9861 31.6958 27.138C31.8589 27.2899 31.9564 27.5013 31.9669 27.7262Z" fill="white"/>
<path d="M31.0928 29.2245H28.1162C27.9132 29.2385 27.7096 29.2098 27.518 29.1403C27.3263 29.0709 27.1508 28.962 27.0022 28.8206C26.8535 28.6792 26.7351 28.5082 26.6541 28.3182C26.573 28.1283 26.5312 27.9234 26.5312 27.7163C26.5312 27.5092 26.573 27.3043 26.6541 27.1143C26.7351 26.9243 26.8535 26.7533 27.0022 26.6119C27.1508 26.4705 27.3263 26.3617 27.518 26.2922C27.7096 26.2227 27.9132 26.1941 28.1162 26.208H31.0928C31.2957 26.1941 31.4993 26.2227 31.691 26.2922C31.8826 26.3617 32.0582 26.4705 32.2068 26.6119C32.3554 26.7533 32.4739 26.9243 32.5549 27.1143C32.6359 27.3043 32.6777 27.5092 32.6777 27.7163C32.6777 27.9234 32.6359 28.1283 32.5549 28.3182C32.4739 28.5082 32.3554 28.6792 32.2068 28.8206C32.0582 28.962 31.8826 29.0709 31.691 29.1403C31.4993 29.2098 31.2957 29.2385 31.0928 29.2245ZM28.1162 27.5823C27.9947 27.5823 27.9137 27.6579 27.9137 27.706C27.9137 27.7541 27.9947 27.8503 28.1162 27.8503H31.0928C31.1366 27.8503 31.1755 27.8402 31.2069 27.8247C31.2866 27.7854 31.289 27.6694 31.2175 27.6166C31.1814 27.5901 31.1371 27.5778 31.0928 27.5823H28.1162Z" fill="#2B2D2F"/>
<path d="M30.9442 47.7339H10.8706C9.8502 47.7339 9.05475 48.6182 9.1624 49.6329C9.25509 50.5066 9.99206 51.1695 10.8706 51.1695H31.3087H33.4516C34.4003 51.1695 35.1694 50.4004 35.1694 49.4517C35.1694 48.503 34.4003 47.7339 33.4516 47.7339H30.9442Z" fill="white"/>
<path d="M35.2829 51.8997H9.41189C9.24503 51.9008 9.08372 51.8388 8.95907 51.7259C8.83443 51.613 8.75529 51.457 8.73694 51.2882L8.37921 47.8526C8.36858 47.7562 8.37812 47.6586 8.40721 47.5662C8.43629 47.4738 8.48426 47.3887 8.54795 47.3166C8.61106 47.2454 8.6881 47.1885 8.77412 47.1494C8.86014 47.1104 8.95323 47.0901 9.04742 47.0898H35.2829C35.4619 47.0898 35.6336 47.1622 35.7602 47.2911C35.8867 47.42 35.9579 47.5947 35.9579 47.777V51.2126C35.9579 51.3949 35.8867 51.5696 35.7602 51.6985C35.6336 51.8273 35.4619 51.8997 35.2829 51.8997ZM9.93908 49.6154C10.0003 50.1344 10.4401 50.5255 10.9627 50.5255H33.5772C34.1465 50.5255 34.6079 50.064 34.6079 49.4948C34.6079 48.9256 34.1465 48.4641 33.5773 48.4641H10.9627C10.3456 48.4641 9.86685 49.0026 9.93908 49.6154Z" fill="#2B2D2F"/>
<path d="M30.0532 45.6586C30.3473 48.6019 28.036 51.1558 25.0779 51.1558H8.14309C5.57424 51.1558 3.42336 49.2092 3.16788 46.6531L2.0885 35.8537C1.79432 32.9104 4.10571 30.3564 7.06372 30.3564H23.9986C26.5674 30.3564 28.7183 32.3031 28.9738 34.8592L30.0532 45.6586Z" fill="white"/>
<path d="M30.6149 51.8369H3.61675C3.44885 51.8378 3.28665 51.7749 3.16185 51.6606C3.03704 51.5462 2.95859 51.3886 2.9418 51.2185L0.862939 30.426C0.853282 30.3307 0.863304 30.2344 0.892364 30.1433C0.921423 30.0522 0.968876 29.9683 1.03168 29.8969C1.09554 29.8249 1.17367 29.7674 1.26092 29.7284C1.34818 29.6893 1.44257 29.6694 1.53789 29.6702H28.5361C28.704 29.6693 28.8662 29.7322 28.991 29.8466C29.1158 29.9609 29.1942 30.1185 29.211 30.2886L31.2359 50.9505C31.2575 51.0866 31.2452 51.2289 31.2041 51.3605C31.1742 51.4562 31.1237 51.5449 31.0554 51.6198C30.9404 51.7457 30.7833 51.8232 30.6149 51.8369ZM3.78148 45.9676C4.04058 48.5204 6.19 50.4627 8.75592 50.4627H24.3528C27.3139 50.4627 29.6263 47.9037 29.3273 44.9578L28.3713 35.5396C28.1123 32.9867 25.9628 31.0444 23.3969 31.0444H7.80001C4.83895 31.0444 2.52657 33.6034 2.82557 36.5493L3.78148 45.9676Z" fill="#2B2D2F"/>
<path d="M21.1681 40.7122C21.1681 41.7559 20.8641 42.7762 20.2945 43.644C19.7249 44.5118 18.9153 45.1882 17.9681 45.5876C17.0209 45.9871 15.9787 46.0916 14.9732 45.8879C13.9676 45.6843 13.044 45.1817 12.319 44.4437C11.5941 43.7057 11.1004 42.7654 10.9004 41.7417C10.7004 40.7181 10.803 39.657 11.1954 38.6927C11.5877 37.7285 12.2521 36.9043 13.1046 36.3244C13.957 35.7446 14.9592 35.4351 15.9844 35.4351C17.3592 35.4351 18.6777 35.991 19.6498 36.9807C20.6219 37.9704 21.1681 39.3126 21.1681 40.7122Z" fill="white"/>
<path d="M16.0695 46.7166C14.9108 46.7166 13.7781 46.3668 12.8147 45.7115C11.8512 45.0561 11.1003 44.1246 10.6569 43.0348C10.2135 41.945 10.0975 40.7457 10.3235 39.5888C10.5496 38.4318 11.1075 37.3691 11.9269 36.535C12.7462 35.7009 13.7901 35.1328 14.9266 34.9027C16.063 34.6726 17.241 34.7907 18.3115 35.2421C19.3821 35.6935 20.297 36.458 20.9408 37.4388C21.5845 38.4196 21.9281 39.5727 21.9281 40.7524C21.9281 42.3342 21.3109 43.8512 20.2122 44.9697C19.1135 46.0883 17.6233 46.7166 16.0695 46.7166ZM16.0695 36.1623C15.1778 36.1623 14.3061 36.4315 13.5646 36.9359C12.8232 37.4403 12.2453 38.1571 11.9041 38.9958C11.5628 39.8346 11.4735 40.7575 11.6475 41.6478C11.8215 42.5382 12.2509 43.3561 12.8814 43.998C13.512 44.6399 14.3153 45.0771 15.1899 45.2542C16.0645 45.4313 16.9711 45.3404 17.7949 44.993C18.6188 44.6456 19.323 44.0573 19.8184 43.3024C20.3138 42.5476 20.5782 41.6602 20.5782 40.7524C20.5765 39.5356 20.1009 38.3691 19.2557 37.5087C18.4105 36.6483 17.2648 36.1642 16.0695 36.1623Z" fill="#2B2D2F"/>
<path d="M16.8233 40.7221V38.063C16.8233 37.6437 16.4834 37.3037 16.064 37.3037C15.6446 37.3037 15.3047 37.6437 15.3047 38.063V40.7221C15.3047 41.1415 15.6446 41.4815 16.064 41.4815C16.4834 41.4815 16.8233 41.1415 16.8233 40.7221Z" fill="white"/>
<path d="M16.8264 42.1694H15.3078C15.1288 42.1694 14.9571 42.097 14.8305 41.9682C14.7039 41.8393 14.6328 41.6645 14.6328 41.4823V37.3046C14.6328 37.1223 14.7039 36.9476 14.8305 36.8187C14.9571 36.6898 15.1288 36.6174 15.3078 36.6174H16.8264C17.0054 36.6174 17.1771 36.6898 17.3037 36.8187C17.4303 36.9476 17.5014 37.1223 17.5014 37.3046V41.4823C17.5014 41.6645 17.4303 41.8393 17.3037 41.9682C17.1771 42.097 17.0054 42.1694 16.8264 42.1694ZM15.9827 40.7108C15.9827 40.7574 16.0205 40.7952 16.0671 40.7952C16.1137 40.7952 16.1515 40.7574 16.1515 40.7108V38.0761C16.1515 38.0295 16.1137 37.9917 16.0671 37.9917C16.0205 37.9917 15.9827 38.0295 15.9827 38.0761V40.7108Z" fill="#2B2D2F"/>
<path d="M16.1225 42.8083H16.0056C15.6185 42.8083 15.3047 43.1221 15.3047 43.5092C15.3047 43.8963 15.6185 44.2101 16.0056 44.2101H16.1225C16.5095 44.2101 16.8233 43.8963 16.8233 43.5092C16.8233 43.1221 16.5095 42.8083 16.1225 42.8083Z" fill="white"/>
<path d="M16.8264 42.1208H15.3078C14.935 42.1208 14.6328 42.4285 14.6328 42.808V44.2097C14.6328 44.5892 14.935 44.8968 15.3078 44.8968H16.8264C17.1992 44.8968 17.5014 44.5892 17.5014 44.2097V42.808C17.5014 42.4285 17.1992 42.1208 16.8264 42.1208Z" fill="#2B2D2F"/>
</svg>
