<svg width="6" height="9" viewBox="0 0 6 9" fill="none" xmlns="http://www.w3.org/2000/svg">
<path d="M2.68005 0.959839C1.96955 0.960902 1.28842 1.2789 0.786014 1.8441C0.283611 2.40931 0.000945449 3.17558 0 3.9749C0 6.13946 2.49692 8.8505 2.603 8.96483C2.62364 8.98739 2.65128 9.00001 2.68005 9.00001C2.70883 9.00001 2.73647 8.98739 2.75711 8.96483C2.86319 8.8505 5.36011 6.13946 5.36011 3.9749C5.35916 3.17558 5.0765 2.40931 4.57409 1.8441C4.07169 1.2789 3.39056 0.960902 2.68005 0.959839ZM2.68005 5.3568C2.43711 5.3568 2.19962 5.27575 1.99761 5.12391C1.79561 4.97206 1.63817 4.75624 1.5452 4.50373C1.45223 4.25122 1.4279 3.97337 1.4753 3.7053C1.5227 3.43724 1.63968 3.19101 1.81147 2.99775C1.98326 2.80448 2.20214 2.67287 2.44041 2.61955C2.67869 2.56623 2.92567 2.59359 3.15013 2.69819C3.37458 2.80278 3.56642 2.9799 3.7014 3.20716C3.83637 3.43441 3.90841 3.70159 3.90841 3.9749C3.90821 4.34133 3.77872 4.69269 3.54841 4.9518C3.31809 5.2109 3.00577 5.35657 2.68005 5.3568Z" fill="#2B2D2F"/>
</svg>
