<svg width="21" height="26" viewBox="0 0 21 26" fill="none" xmlns="http://www.w3.org/2000/svg">
<path d="M19.4023 10.8754C19.4023 13.3453 18.081 15.6547 16.082 18.0609C15.0888 19.2565 13.9538 20.4467 12.7726 21.6733C12.6793 21.7701 12.5858 21.8672 12.492 21.9645C11.6058 22.884 10.6994 23.8244 9.82923 24.7893C9.00425 23.8034 8.14228 22.8434 7.29987 21.9051C7.23616 21.8342 7.17256 21.7633 7.1091 21.6926C6.00778 20.4655 4.94763 19.2755 4.01837 18.0799C2.15099 15.6772 0.902344 13.3614 0.902344 10.8754C0.902344 5.8094 5.03884 1.69385 10.1523 1.69385C15.2658 1.69385 19.4023 5.8094 19.4023 10.8754Z" stroke="#9E8267" stroke-width="1.5" stroke-linejoin="round"/>
<path d="M14.5597 10.533C14.5597 12.951 12.5846 14.92 10.1373 14.92C7.68996 14.92 5.71484 12.951 5.71484 10.533C5.71484 8.11497 7.68996 6.146 10.1373 6.146C12.5846 6.146 14.5597 8.11497 14.5597 10.533Z" stroke="#9E8267" stroke-width="1.5"/>
</svg>
