<svg width="174" height="58" viewBox="0 0 174 58" fill="none" xmlns="http://www.w3.org/2000/svg">
<path fill-rule="evenodd" clip-rule="evenodd" d="M68.7569 13.8341L68.3668 8.62867L57.6355 14.7343L62.6325 17.5775L68.4736 14.2541C68.6441 14.1535 68.8547 14.1535 69.0252 14.2541C81.13 21.141 93.1384 28.1891 105.244 35.077L129.135 21.4838V15.7592L105.66 29.1154L105.245 34.6528L104.83 29.1165C92.9081 22.3319 81.067 15.4133 69.1473 8.62764L68.7569 13.8341ZM105.244 13.9524L105.635 8.74074L111.207 11.9114L116.366 14.8467L111.369 17.6899L105.528 14.3665C105.356 14.2649 105.152 14.2576 104.977 14.3571L99.1707 17.6603L94.2194 14.7911L104.853 8.74074L105.244 13.9524ZM68.4736 22.146C68.6455 22.248 68.8498 22.2553 69.0248 22.1558L74.8458 18.8439L79.8059 21.7083L68.7579 27.9942C60.978 23.568 53.1982 19.1414 45.4186 14.7152L68.7579 1.43586C80.8624 8.32278 92.8747 15.3733 104.977 22.2588C105.147 22.3594 105.358 22.3594 105.528 22.2588C109.583 19.9515 113.638 17.6443 117.693 15.3371C118.038 15.1411 118.203 14.6456 117.728 14.3762L105.52 7.43016C105.349 7.32924 105.138 7.3296 104.968 7.43052L93.135 14.1629L88.1502 11.2742L105.244 1.54862L128.583 14.8276L105.244 28.1069C93.1475 21.2245 81.1318 14.2009 69.0335 7.31742C68.8721 7.22207 68.6654 7.21336 68.4907 7.31254C64.4285 9.62361 60.3652 11.9267 56.3044 14.2367C55.9599 14.433 55.7806 14.925 56.2657 15.2003C60.3725 17.5476 64.4031 19.8301 68.4736 22.146ZM69.1765 29.0013L80.892 22.3357L85.8854 25.2192L68.7579 34.9643C60.7943 30.4333 52.8307 25.9023 44.8671 21.3714V15.6464L68.339 29.0013L68.7579 34.5863L69.1765 29.0013ZM73.7511 18.2119C72.0852 17.2497 70.4214 16.2937 68.7492 15.3426L63.7269 18.2001L68.7492 21.0575L73.7511 18.2119ZM100.263 18.2937L105.252 15.455L110.275 18.3128L105.252 21.1702L100.263 18.2937ZM87.1 10.6265L69.0335 0.347327C68.8721 0.251975 68.6654 0.24327 68.4907 0.34245L44.0934 14.2238C43.909 14.3105 43.7812 14.4977 43.7812 14.7152V21.6853C43.7812 21.9024 43.909 22.0897 44.0934 22.1767L68.482 36.0528C68.6434 36.1482 68.8501 36.1569 69.0248 36.0577L86.902 25.8863L104.968 36.1656C105.13 36.2609 105.336 36.2696 105.511 36.1704L129.908 22.2891C130.093 22.2024 130.221 22.0148 130.221 21.7977V14.8276C130.221 14.6105 130.093 14.4232 129.908 14.3362L105.52 0.46007C105.359 0.364718 105.152 0.355683 104.977 0.455211L87.1 10.6265Z" fill="url(#paint0_linear_103_432)"/>
<path d="M0 57.535V45.252H2.9128L6.14152 50.4459L9.37024 45.252H12.2834V57.535H9.59855V49.516L6.14152 54.7625H6.07158L2.64969 49.5686V57.535H0ZM17.8632 57.535V45.252H27.1284V47.656H20.548V50.1477H26.3388V52.5517H20.548V55.131H27.216V57.535H17.8632ZM34.9546 47.6911V49.8317H38.2007C39.5694 49.8317 40.6311 50.1741 41.3856 50.8583C42.14 51.5428 42.5172 52.4699 42.5172 53.6395C42.5172 54.8798 42.1139 55.8389 41.3066 56.5175C40.4996 57.1957 39.3766 57.535 37.9376 57.535H32.2523V45.252H41.6751V47.6911H34.9546ZM37.9198 52.078H34.9546V55.0962H37.9376C39.1893 55.0962 39.8151 54.5756 39.8151 53.5344C39.8151 52.5635 39.1834 52.078 37.9198 52.078ZM47.3782 57.535V45.252H56.6429V47.656H50.0626V50.1477H55.8533V52.5517H50.0626V55.131H56.7307V57.535H47.3782ZM63.3987 45.252H72.1724V57.535H69.4702V47.6911H65.9255V48.621C65.9255 51.0191 65.7825 52.8791 65.4957 54.2012C65.209 55.5229 64.791 56.4357 64.2411 56.9385C63.6913 57.4414 62.9251 57.693 61.9423 57.693C61.3925 57.693 60.9188 57.6405 60.5211 57.535L60.6964 55.3064C60.8603 55.3301 61.0006 55.3416 61.1175 55.3416C61.5153 55.3416 61.84 55.257 62.0916 55.0872C62.3432 54.9177 62.577 54.5756 62.7935 54.0609C63.0099 53.5459 63.1648 52.7768 63.2584 51.7533C63.3521 50.7295 63.3987 49.4106 63.3987 47.7962V45.252ZM77.7526 57.535V45.252H87.0174V47.656H80.4374V50.1477H86.2278V52.5517H80.4374V55.131H87.1055V57.535H77.7526ZM92.1414 57.535V45.252H97.8444C99.2601 45.252 100.33 45.6146 101.055 46.3399C101.617 46.9015 101.898 47.609 101.898 48.463C101.898 49.6211 101.36 50.5044 100.284 51.1127C101.044 51.4053 101.617 51.7885 102.003 52.2621C102.389 52.7361 102.582 53.3705 102.582 54.166C102.582 55.2657 102.173 56.102 101.354 56.6755C100.535 57.2486 99.4118 57.535 97.9846 57.535H92.1414ZM94.7737 50.218H97.2653C98.5637 50.218 99.2131 49.7732 99.2131 48.8841C99.2131 48.4748 99.061 48.162 98.7568 47.9455C98.4527 47.7291 98.0139 47.6208 97.4408 47.6208H94.7737V50.218ZM94.7737 55.1662H97.9846C99.2601 55.1662 99.8973 54.7099 99.8973 53.7975C99.8973 52.9084 99.2305 52.464 97.897 52.464H94.7737V55.1662ZM122.428 51.7446L125.394 45.252H128.324L123.604 54.7451C123.078 55.7978 122.496 56.5582 121.858 57.0262C121.22 57.4943 120.463 57.7282 119.586 57.7282C118.661 57.7282 117.778 57.4884 116.936 57.0088L117.989 55.0259C118.433 55.2949 118.919 55.4296 119.445 55.4296C120.053 55.4296 120.568 55.1018 120.989 54.4469L116.076 45.252H119.094L122.428 51.7446ZM132.746 57.535V45.252H137.764C139.215 45.252 140.362 45.6438 141.204 46.4275C142.046 47.2116 142.467 48.2469 142.467 49.5334C142.467 50.9021 141.999 51.9639 141.064 52.7183C140.128 53.4728 138.94 53.85 137.501 53.85H135.448V57.535H132.746ZM135.448 51.4461H137.589C138.256 51.4461 138.78 51.2707 139.16 50.9199C139.54 50.5688 139.73 50.1125 139.73 49.5512C139.73 48.9544 139.537 48.4954 139.151 48.1735C138.765 47.8519 138.227 47.6911 137.537 47.6911H135.448V51.4461ZM146.047 57.535L151.311 45.1643H153.803L159.067 57.535H156.242L155.119 54.7802H149.925L148.802 57.535H146.047ZM150.89 52.3937H154.154L152.522 48.4105L150.89 52.3937ZM165.226 45.252H174V57.535H171.298V47.6911H167.753V48.621C167.753 51.0191 167.61 52.8791 167.323 54.2012C167.037 55.5229 166.619 56.4357 166.069 56.9385C165.519 57.4414 164.753 57.693 163.77 57.693C163.22 57.693 162.746 57.6405 162.349 57.535L162.524 55.3064C162.688 55.3301 162.828 55.3416 162.945 55.3416C163.343 55.3416 163.668 55.257 163.919 55.0872C164.171 54.9177 164.405 54.5756 164.621 54.0609C164.838 53.5459 164.992 52.7768 165.086 51.7533C165.18 50.7295 165.226 49.4106 165.226 47.7962V45.252ZM106.846 53.3764V50.8144H112.251V53.3764H106.846Z" fill="#9E8267"/>
<defs>
<linearGradient id="paint0_linear_103_432" x1="43.7812" y1="18.2564" x2="130.22" y2="18.2564" gradientUnits="userSpaceOnUse">
<stop stop-color="#6E5B4A"/>
<stop offset="1" stop-color="#CF9B5B"/>
</linearGradient>
</defs>
</svg>
