<svg width="12" height="8" viewBox="0 0 12 8" fill="none" xmlns="http://www.w3.org/2000/svg">
<path d="M7.00113 5.20085C6.70232 5.37792 6.35524 5.47152 5.99739 5.47152C5.63956 5.47152 5.29248 5.37792 4.99368 5.20085L0.0721552 2.28431C0.0449864 2.26816 0.0183205 2.25135 -0.0078125 2.23391L-0.0078125 7.01299C-0.0078125 7.56092 0.492426 7.99577 1.09782 7.99577H10.8969C11.5134 7.99577 12.0026 7.55112 12.0026 7.01299V2.23389C11.9764 2.25138 11.9497 2.26822 11.9224 2.28439L7.00113 5.20085Z" fill="#9E8267"/>
<path d="M0.462517 1.76386L5.38404 4.68043C5.57034 4.79084 5.78385 4.84603 5.99737 4.84603C6.2109 4.84603 6.42444 4.79082 6.61074 4.68043L11.5323 1.76386C11.8268 1.58944 12.0026 1.29752 12.0026 0.982455C12.0026 0.440715 11.5068 0 10.8973 0H1.09745C0.488016 2.08514e-05 -0.00781192 0.440736 -0.00781192 0.982976C-0.00799462 1.13753 0.034858 1.28972 0.116924 1.42597C0.19899 1.56222 0.317717 1.67831 0.462517 1.76386Z" fill="#9E8267"/>
</svg>
