<svg width="22" height="16" viewBox="0 0 22 16" fill="none" xmlns="http://www.w3.org/2000/svg">
<path d="M20.0412 0.943848H2.54123C1.65234 0.943848 1.15234 1.50385 1.15234 2.06385V13.5438C1.15234 14.6638 2.07827 14.9438 2.54123 14.9438H20.0412C20.9301 14.9438 21.1523 14.1972 21.1523 13.8238V2.06385C21.1523 1.16785 20.4116 0.943848 20.0412 0.943848Z" stroke="#9E8267" stroke-width="1.2"/>
<path d="M1.71484 1.22339L8.65929 8.50339M20.8815 1.22339C19.0097 3.04931 15.6395 6.465 13.6374 8.50339M8.65929 8.50339L10.0482 9.9034C10.8815 10.7434 11.6016 10.5776 12.2704 9.9034C12.367 9.80599 12.5693 9.59083 13.6374 8.50339M8.65929 8.50339L1.71484 14.3834M20.8815 14.6634L13.6374 8.50339" stroke="#9E8267" stroke-width="1.2"/>
</svg>
