<svg width="20" height="19" viewBox="0 0 20 19" fill="none" xmlns="http://www.w3.org/2000/svg">
<path d="M16.5828 2.6121C14.8984 0.927558 12.6592 0 10.2768 0H10.2759C9.09764 0.000143674 7.94937 0.228262 6.86327 0.678248C5.77702 1.1282 4.80385 1.77879 3.97057 2.6121C2.28618 4.29646 1.35858 6.53604 1.35858 8.91815C1.35858 10.3387 1.70139 11.7505 2.35087 13.0084L0.851847 17.2908C0.746174 17.5929 0.820957 17.9212 1.04742 18.1475C1.20582 18.3061 1.41433 18.3902 1.62865 18.3902C1.72057 18.3902 1.81346 18.3748 1.90408 18.3431L6.18653 16.8442C7.44439 17.4937 8.85613 17.8365 10.2767 17.8365C12.6589 17.8365 14.8983 16.9088 16.5828 15.2244C18.2672 13.54 19.1949 11.3004 19.1949 8.9183C19.1949 6.53604 18.2674 4.29646 16.5828 2.6121ZM15.8201 14.4617C14.3395 15.9425 12.3707 16.7578 10.2768 16.7578C8.99578 16.7578 7.72319 16.441 6.59654 15.8413C6.39227 15.7327 6.15079 15.714 5.93402 15.7899L2.04333 17.1516L3.40511 13.2609C3.48104 13.0439 3.46222 12.8024 3.35364 12.5983C2.75409 11.4718 2.43714 10.1993 2.43714 8.91815C2.43714 6.82422 3.2526 4.85542 4.73327 3.37479C6.21379 1.89427 8.18226 1.07881 10.2761 1.07852H10.2768C12.3708 1.07852 14.3395 1.89398 15.8201 3.37479C17.301 4.85546 18.1164 6.82407 18.1164 8.91815C18.1164 11.0122 17.301 12.981 15.8201 14.4617Z" fill="#9E8267"/>
<path d="M13.5912 9.71474C13.1809 9.30448 12.5134 9.30448 12.1031 9.71474L11.6544 10.1634C10.5402 9.55634 9.6386 8.65472 9.03136 7.54053L9.48005 7.09183C9.89046 6.68157 9.89046 6.01403 9.48005 5.60373L8.2709 4.39461C7.86064 3.98435 7.19305 3.98435 6.78279 4.39461L5.81551 5.36189C5.26147 5.91594 5.23385 6.86849 5.73768 8.0441C6.17516 9.06483 6.97575 10.1867 7.99199 11.203C9.00823 12.2192 10.1301 13.0198 11.1508 13.4573C11.7094 13.6966 12.2174 13.816 12.6565 13.816C13.1415 13.816 13.5422 13.6703 13.8331 13.3794L14.8004 12.412V12.4121C14.9992 12.2133 15.1086 11.9491 15.1086 11.6681C15.1086 11.3869 14.9992 11.1227 14.8003 10.924L13.5912 9.71474ZM13.0704 12.6167C12.9122 12.7748 12.4259 12.8302 11.5758 12.466C10.6781 12.0813 9.6762 11.3618 8.75468 10.4403C7.83316 9.51873 7.11378 8.51693 6.7291 7.61922C6.3647 6.76914 6.42013 6.2827 6.57824 6.12459L7.52699 5.17584L8.69883 6.34778L8.13721 6.90958C7.88326 7.16353 7.82191 7.54868 7.9848 7.86803C8.72325 9.31597 9.87896 10.4717 11.3269 11.2101C11.6464 11.373 12.0316 11.3119 12.2855 11.0577L12.8472 10.4961L14.0191 11.6681L13.0704 12.6167Z" fill="#9E8267"/>
</svg>
