<svg width="11" height="11" viewBox="0 0 11 11" fill="none" xmlns="http://www.w3.org/2000/svg">
<path d="M10.6891 8.07289L9.15398 6.53781C8.60573 5.98956 7.67372 6.20888 7.45442 6.92158C7.28995 7.41502 6.7417 7.68914 6.24828 7.57947C5.1518 7.30535 3.67154 5.87992 3.39742 4.7286C3.23294 4.23516 3.56189 3.68692 4.05531 3.52247C4.76803 3.30317 4.98732 2.37116 4.43908 1.82291L2.904 0.287828C2.4654 -0.0959427 1.80751 -0.0959427 1.42374 0.287828L0.382075 1.32949C-0.659588 2.42598 0.491724 5.33167 3.06847 7.90842C5.64522 10.4852 8.55091 11.6913 9.6474 10.5948L10.6891 9.55315C11.0729 9.11455 11.0729 8.45666 10.6891 8.07289Z" fill="#9E8267"/>
</svg>
