<svg width="6" height="9" viewBox="0 0 6 9" fill="none" xmlns="http://www.w3.org/2000/svg">
<path d="M3 0C2.20468 0.00119061 1.44223 0.357152 0.879849 0.98983C0.317469 1.62251 0.00105832 2.48026 0 3.375C0 5.79797 2.795 8.83266 2.91375 8.96062C2.93685 8.98588 2.96779 9.00001 3 9.00001C3.03221 9.00001 3.06315 8.98588 3.08625 8.96062C3.205 8.83266 6 5.79797 6 3.375C5.99894 2.48026 5.68253 1.62251 5.12015 0.98983C4.55777 0.357152 3.79532 0.00119061 3 0ZM3 4.92188C2.72805 4.92188 2.46221 4.83115 2.23609 4.66118C2.00997 4.49121 1.83374 4.24962 1.72967 3.96696C1.6256 3.68431 1.59837 3.37328 1.65142 3.07322C1.70448 2.77316 1.83543 2.49753 2.02773 2.28119C2.22003 2.06486 2.46503 1.91753 2.73175 1.85785C2.99847 1.79816 3.27494 1.82879 3.52619 1.94587C3.77744 2.06295 3.99218 2.26122 4.14327 2.5156C4.29436 2.76998 4.375 3.06906 4.375 3.375C4.37477 3.78518 4.22983 4.17848 3.97202 4.46852C3.7142 4.75856 3.3646 4.92161 3 4.92188Z" fill="#9E8267"/>
</svg>
