<svg width="19" height="19" viewBox="0 0 19 19" fill="none" xmlns="http://www.w3.org/2000/svg">
<path d="M9.8045 18.3902C14.8748 18.3902 18.9996 14.2655 18.9996 9.19512C18.9996 4.12478 14.8748 0 9.8045 0C4.73415 0 0.609375 4.12478 0.609375 9.19512C0.609375 14.2655 4.73415 18.3902 9.8045 18.3902ZM9.8045 1.14939C14.2411 1.14939 17.8502 4.75848 17.8502 9.19512C17.8502 13.6318 14.2411 17.2409 9.8045 17.2409C5.36785 17.2409 1.75877 13.6318 1.75877 9.19512C1.75877 4.75848 5.36785 1.14939 9.8045 1.14939Z" fill="#9E8267"/>
<path d="M6.65743 10.8466L7.85892 10.3247L7.52177 10.6627C7.41396 10.7703 7.35332 10.9164 7.35319 11.0688V13.3178C7.35319 13.8327 7.97539 14.0825 8.334 13.7239L9.5401 12.5178L12.1684 13.8319C12.2482 13.8718 12.3362 13.8925 12.4254 13.8925C12.5146 13.8924 12.6025 13.8716 12.6823 13.8317C12.7621 13.7918 12.8315 13.7338 12.885 13.6624C12.9385 13.5911 12.9746 13.5082 12.9906 13.4204L14.4901 5.17471C14.5083 5.07401 14.4993 4.97029 14.464 4.87423C14.4288 4.77818 14.3685 4.69326 14.2895 4.62823C14.2105 4.5632 14.1156 4.52041 14.0146 4.50427C13.9135 4.48813 13.81 4.49923 13.7147 4.53642L3.97092 8.3501C3.8721 8.38873 3.7859 8.45397 3.72188 8.53858C3.65785 8.62319 3.61851 8.72388 3.60819 8.82948C3.59788 8.93508 3.617 9.04148 3.66344 9.13688C3.70988 9.23228 3.78183 9.31296 3.8713 9.36999L6.11951 10.8044C6.28043 10.9071 6.48348 10.9232 6.65743 10.8466ZM13.1752 5.98312L11.9975 12.4618L9.68339 11.3056C9.57558 11.2516 9.4535 11.2329 9.3345 11.2523C9.2155 11.2717 9.10565 11.3282 9.02057 11.4136L8.50258 11.9316V11.3086L10.8067 9.00448C11.2535 8.55775 10.7508 7.82061 10.1715 8.07118L6.48042 9.67266L5.4429 9.01061L13.1752 5.98312Z" fill="#9E8267"/>
</svg>
